<svg version="1.1" id="Layer_1" xmlns="http://www.w3.org/2000/svg" xmlns:xlink="http://www.w3.org/1999/xlink" x="0px" y="0px"
	 viewBox="0 0 1772 1772" style="enable-background:new 0 0 1772 1772;" xml:space="preserve">
<style type="text/css">
	.st0{fill:#FFFFFF;}
</style>
<circle class="st0" cx="886" cy="886" r="800"/>
<g transform="translate(0.000000,1772.000000) scale(0.100000,-0.100000)">
	<path d="M5580,12333c-14-2-52-13-85-25c-161-56-281-185-333-355c-16-54-17-189-19-2023c-1-1081-4-2068-7-2195
		c-14-670-180-1197-412-1311c-51-25-61-26-163-22c-98,4-116,8-175,37c-80,39-114,78-171,196c-48,99-71,176-115,380
		c-36,169-72,245-156,334c-102,109-223,161-374,161c-259-1-473-186-511-446c-16-102-1-214,56-439c71-282,151-474,275-659
		c210-313,497-505,880-587c143-31,469-34,600-6c175,38,327,101,475,198c106,70,295,259,377,379c233,338,376,785,444,1390
		c13,119,18,329,24,1155c5,556,13,1064,19,1130c54,604,203,1011,407,1111c51,25,61,26,163,22c98-4,116-8,175-37c36-18,79-48,96-69
		c48-57,115-205,152-332l32-115l6-1125c5-850,9-1136,19-1170c73-262,320-429,580-389c220,33,390,194,436,414c12,56,15,175,15,615
		c0,621,13,1048,35,1230c63,512,207,866,391,956c51,25,61,26,163,22c98-4,116-8,175-37c36-18,79-48,96-69c48-57,115-205,152-332
		l32-115l6-960c5-715,10-971,19-1005c72-262,320-429,580-389c220,33,390,194,436,414c12,59,15,222,15,1010c0,1046,2,1003-70,1283
		c-69,266-150,456-270,636c-210,313-497,505-880,587c-143,31-469,34-600,6c-255-55-462-163-646-339l-94-90l-85,80
		c-185,175-399,284-675,343c-142,31-469,34-600,6c-72-15-200-55-262-82c-16-6-18,0-18,61c0,176-55,320-162,425
		C5914,12304,5740,12359,5580,12333z"/>
	<path d="M12905,12316c-304-51-542-178-760-407c-317-331-519-871-590-1574c-30-304-34-425-35-1100c0-942-17-1621-45-1865
		c-60-505-207-866-391-956c-51-25-61-26-163-22c-98,4-116,8-175,37c-80,39-114,78-171,196c-48,99-71,176-115,380
		c-36,169-72,245-156,334c-102,109-223,161-374,161c-259-1-473-186-511-446c-16-102-1-214,56-439c71-282,151-474,275-659
		c210-313,497-505,880-587c143-31,469-34,600-6c175,38,327,101,475,198c106,70,295,259,377,379c194,280,328,646,402,1093
		c62,372,73,613,86,1991c5,550,14,1055,20,1121c50,595,202,1011,406,1111c51,25,61,26,163,22c98-4,116-8,175-37
		c80-39,114-78,171-196c48-99,71-176,115-380c36-169,72-245,156-334c102-109,223-161,374-161c259,1,473,186,511,446
		c16,102,1,214-56,439c-71,282-151,474-275,659c-208,311-499,506-875,586C13326,12327,13025,12336,12905,12316z"/>
</g>
</svg>
