<svg version="1.0" xmlns="http://www.w3.org/2000/svg"
 width="30px" height="30px" viewBox="0 0 1772.000000 1772.000000"
 preserveAspectRatio="xMidYMid meet">

<g transform="translate(0.000000,1772.000000) scale(0.100000,-0.100000)"
fill="#ffffff" stroke="none">
<path d="M13981 14644 c-29 -8 -216 -82 -415 -165 -506 -211 -1243 -521 -1551
-651 -251 -106 -806 -339 -2085 -873 -333 -139 -798 -335 -1035 -435 -236
-100 -731 -308 -1100 -462 -790 -330 -1007 -421 -1870 -783 -357 -150 -861
-362 -1120 -470 -1568 -657 -1513 -632 -1597 -738 -82 -105 -118 -204 -118
-332 0 -94 20 -178 58 -249 32 -60 120 -156 177 -196 92 -63 103 -66 960 -250
528 -114 996 -215 1342 -290 177 -38 336 -72 354 -75 18 -3 164 -35 326 -70
162 -36 306 -67 321 -70 15 -3 40 -7 57 -11 16 -3 160 -34 320 -69 159 -35
304 -67 322 -70 18 -3 164 -34 325 -69 309 -68 320 -71 409 -87 30 -6 61 -14
68 -18 13 -8 23 -46 70 -271 17 -80 53 -248 80 -375 103 -478 426 -1976 705
-3275 160 -746 178 -825 202 -888 132 -352 569 -467 846 -223 71 63 117 141
201 337 177 420 1182 2813 1667 3974 155 371 379 905 497 1185 300 712 756
1799 1151 2745 77 184 200 479 275 655 514 1224 758 1808 776 1862 57 170 43
330 -42 476 -35 60 -144 159 -209 191 -114 55 -254 70 -367 40z m-851 -1499
c0 -6 -301 -728 -542 -1300 -88 -209 -207 -490 -263 -625 -56 -135 -180 -429
-275 -655 -95 -225 -223 -533 -286 -683 -63 -149 -166 -397 -230 -550 -64
-152 -196 -468 -294 -702 -98 -234 -299 -713 -447 -1065 -148 -352 -422 -1004
-608 -1449 -249 -592 -341 -804 -347 -790 -4 11 -30 125 -57 254 -46 217 -216
1005 -411 1910 -173 805 -238 1119 -248 1210 -9 77 -19 110 -51 175 -57 114
-153 207 -266 255 -35 15 -593 145 -750 174 -16 4 -42 8 -57 11 -15 3 -159 34
-320 69 -161 36 -306 67 -323 70 -16 3 -187 40 -380 81 -192 42 -496 108 -675
146 -743 160 -935 202 -942 208 -4 4 234 107 530 231 295 123 868 363 1272
533 1136 478 1696 713 2175 912 242 100 782 327 1200 503 418 176 949 399
1180 496 231 96 638 267 905 380 458 193 510 213 510 201z"/>
</g>
</svg>
